<?xml version="1.0" encoding="UTF-8"?>
<!DOCTYPE svg PUBLIC "-//W3C//DTD SVG 1.1//EN" "http://www.w3.org/Graphics/SVG/1.1/DTD/svg11.dtd">
<!-- Creator: CorelDRAW -->
<svg xmlns="http://www.w3.org/2000/svg" xml:space="preserve" width="105.833mm" height="105.833mm" version="1.1" style="shape-rendering:geometricPrecision; text-rendering:geometricPrecision; image-rendering:optimizeQuality; fill-rule:evenodd; clip-rule:evenodd"
viewBox="0 0 10583.32 10583.32"
 xmlns:xlink="http://www.w3.org/1999/xlink"
 xmlns:xodm="http://www.corel.com/coreldraw/odm/2003">
 <defs>
  <style type="text/css">
   <![CDATA[
    .fil0 {fill:#C7C8C9}
   ]]>
  </style>
 </defs>
 <g id="Camada_x0020_1">
  <metadata id="CorelCorpID_0Corel-Layer"/>
  <path class="fil0" d="M821.9 216.66l8939.52 14.14 -848.88 9166.52 -3735.07 969.34 -3550.24 -976.05 -805.33 -9173.95zm7311.13 4054.39l-96.13 1145.15 -259.29 2523.93 -2705.01 538.72 5.43 0.47 -2385.24 -492.74 -155.6 -1205.5 -4.19 2.68 -81.72 -597.01 1276.31 6.42 164.77 857.48 1187.1 274.54 0 -4.9 1644.7 -320.59 163.11 -1583.5 -4459.69 -24.55 -160.32 -1102.36 7.9 0 3069.67 -856.07 -3148.65 3.09 -142.17 -1148.18 6350.11 0 -157.96 1369.32 -1928.75 613.6 1815.62 0z"/>
 </g>
</svg>
