<?xml version="1.0" encoding="UTF-8"?>
<!DOCTYPE svg PUBLIC "-//W3C//DTD SVG 1.1//EN" "http://www.w3.org/Graphics/SVG/1.1/DTD/svg11.dtd">
<!-- Creator: CorelDRAW -->
<svg xmlns="http://www.w3.org/2000/svg" xml:space="preserve" width="105.833mm" height="105.833mm" version="1.1" style="shape-rendering:geometricPrecision; text-rendering:geometricPrecision; image-rendering:optimizeQuality; fill-rule:evenodd; clip-rule:evenodd"
viewBox="0 0 10583.32 10583.32"
 xmlns:xlink="http://www.w3.org/1999/xlink"
 xmlns:xodm="http://www.corel.com/coreldraw/odm/2003">
 <defs>
  <style type="text/css">
   <![CDATA[
    .fil0 {fill:#C7C8C9}
   ]]>
  </style>
 </defs>
 <g id="Camada_x0020_1">
  <metadata id="CorelCorpID_0Corel-Layer"/>
  <path class="fil0" d="M821.86 216.63l805.38 9173.99 3835.98 976.06 3449.28 -969.43 848.97 -9166.48 -8939.61 -14.14zm7769.19 4071.11l-275.17 3794.08 -2860.55 879.62 -6.72 -21.65 -4.2 17.14 -3154.74 -707.43 -106.09 -1866.55 1121.94 -0.62 57.1 970.84 2075.71 437.72 0.09 0 1792.96 -551.28 88.23 -1828.13 -4987.05 0 0 -7.04 -161.3 7.04c-0.07,-1.02 -0.14,-2.59 -0.23,-4.65 -9.96,-171.24 -269.89,-3785.02 -269.89,-3785.02l6792.42 0 -149.91 1123.74 -5363.78 0 67.2 1542.19 5343.98 0z"/>
 </g>
</svg>
