<?xml version="1.0" encoding="UTF-8"?>
<!DOCTYPE svg PUBLIC "-//W3C//DTD SVG 1.1//EN" "http://www.w3.org/Graphics/SVG/1.1/DTD/svg11.dtd">
<!-- Creator: CorelDRAW -->
<svg xmlns="http://www.w3.org/2000/svg" xml:space="preserve" width="105.833mm" height="105.833mm" version="1.1" style="shape-rendering:geometricPrecision; text-rendering:geometricPrecision; image-rendering:optimizeQuality; fill-rule:evenodd; clip-rule:evenodd"
viewBox="0 0 10583.32 10583.32"
 xmlns:xlink="http://www.w3.org/1999/xlink"
 xmlns:xodm="http://www.corel.com/coreldraw/odm/2003">
 <defs>
  <style type="text/css">
   <![CDATA[
    .fil0 {fill:#C7C8C9}
   ]]>
  </style>
 </defs>
 <g id="Camada_x0020_1">
  <metadata id="CorelCorpID_0Corel-Layer"/>
  <path class="fil0" d="M811.94 204.99l8959.44 14.18 0 7.38 -850.08 9180.31 -3306.38 971.47 -3995.79 -978.26 -807.19 -9195.08zm3680.58 7729.51l-897.83 -141.87 -1425.48 -159.38 -101.89 -1012.82 1387.8 177.32 5.78 -4442.5 1042.06 1.38 -8.56 4573.9 3.34 0.43 -3.38 19.98 -1.84 983.56zm3518.56 -1086.34l-39.26 1041.49 -2395.48 0 17.02 -998.35 1291.27 -23.04 66.21 -1246.65 -1405.36 3.66 0 -1048.6 5.48 0 -3.74 -1191.53 -1.74 -0.01 0 -554.44 0 -474.67 2732.92 0 -138.65 1049.94 -1550.43 -12.45 3.71 1183.16 1548.08 0 -66.72 1042.02 -8.87 0.02 -57.7 1229.51 3.26 -0.06z"/>
 </g>
</svg>
